<svg width="36" height="38" viewBox="0 0 36 38" fill="none" xmlns="http://www.w3.org/2000/svg">
<g filter="url(#filter0_d_9_2079)">
<path fill-rule="evenodd" clip-rule="evenodd" d="M29.3145 17.3537C28.7911 16.892 28.1697 16.5347 27.4845 16.3151C28.7923 15.2228 29.688 13.6846 29.9325 11.9582C29.8581 11.9913 29.7831 12.023 29.7075 12.0533C29.6456 12.0781 29.5833 12.102 29.5207 12.1248C28.7061 12.4222 27.8309 12.5557 26.948 12.5085L26.9296 12.5074C25.3617 12.4191 23.8823 11.7669 22.7762 10.6761L22.7683 10.6684C21.7663 9.67681 21.1368 8.38845 20.9733 7.01255C20.9555 6.86264 20.9432 6.71169 20.9366 6.55997C20.9003 5.73109 21.0342 4.91114 21.3224 4.1457C18.7754 4.65796 16.7448 6.47226 15.9514 8.81117C15.2994 8.66669 14.6244 8.58146 13.9326 8.56156C15.0199 4.77577 18.5761 2 22.7953 2C23.7717 2 24.7126 2.14865 25.5956 2.42407C24.783 2.75927 24.0969 3.32884 23.6266 4.0458C23.6213 4.04522 23.616 4.04464 23.6108 4.04407C23.148 4.76749 22.9164 5.61494 22.9541 6.47651C22.9584 6.57401 22.966 6.67105 22.9771 6.76748C23.0849 7.70983 23.5128 8.59303 24.1967 9.27318L24.2045 9.2809C24.963 10.0315 25.98 10.4793 27.0574 10.5369L27.0759 10.5379C27.7248 10.5699 28.3673 10.459 28.958 10.2194C29.3422 10.0636 29.7046 9.85342 30.0326 9.59276L30.034 9.5944C30.6398 9.11088 31.109 8.47078 31.3765 7.73752C31.779 8.74903 31.9999 9.8493 31.9999 11C31.9999 13.48 30.974 15.7258 29.3145 17.3537Z" fill="url(#paint0_linear_9_2079)"/>
<path fill-rule="evenodd" clip-rule="evenodd" d="M14.5 28L14.5534 27.9998V28H25L25 27.9999C27.6747 27.9999 30 25.7008 30 22.6666C30 19.6324 27.6747 17.3333 25 17.3333C24.2695 17.3333 23.5652 17.5047 22.9271 17.8158C22.8416 17.1268 22.6824 16.4624 22.4583 15.8316L22.4607 15.8307C21.2389 12.3871 18.0862 10 14.5 10C9.89224 10 6 13.9407 6 19C6 24.0593 9.89224 28 14.5 28ZM25 29.9999C28.866 29.9999 32 26.7167 32 22.6666C32 18.6165 28.866 15.3333 25 15.3333C24.8017 15.3333 24.6052 15.3419 24.4111 15.3588C22.9766 11.0731 19.0809 8 14.5 8C8.70101 8 4 12.9249 4 19C4 25.0751 8.70101 30 14.5 30C14.5094 30 14.5188 30 14.5283 30V30H25L25 29.9999Z" fill="url(#paint1_linear_9_2079)"/>
</g>
<defs>
<filter id="filter0_d_9_2079" x="-2" y="0" width="40" height="40" filterUnits="userSpaceOnUse" color-interpolation-filters="sRGB">
<feFlood flood-opacity="0" result="BackgroundImageFix"/>
<feColorMatrix in="SourceAlpha" type="matrix" values="0 0 0 0 0 0 0 0 0 0 0 0 0 0 0 0 0 0 127 0" result="hardAlpha"/>
<feOffset dy="4"/>
<feGaussianBlur stdDeviation="2"/>
<feComposite in2="hardAlpha" operator="out"/>
<feColorMatrix type="matrix" values="0 0 0 0 0 0 0 0 0 0 0 0 0 0 0 0 0 0 0.25 0"/>
<feBlend mode="normal" in2="BackgroundImageFix" result="effect1_dropShadow_9_2079"/>
<feBlend mode="normal" in="SourceGraphic" in2="effect1_dropShadow_9_2079" result="shape"/>
</filter>
<linearGradient id="paint0_linear_9_2079" x1="22.9663" y1="2" x2="22.9663" y2="17.3537" gradientUnits="userSpaceOnUse">
<stop stop-color="#F5BD52"/>
<stop offset="1" stop-color="#F5DA79"/>
</linearGradient>
<linearGradient id="paint1_linear_9_2079" x1="18" y1="8" x2="18" y2="30" gradientUnits="userSpaceOnUse">
<stop stop-color="#B2D4F7"/>
<stop offset="1" stop-color="#D9E2F3"/>
</linearGradient>
</defs>
</svg>
